<svg width="512" height="512" viewBox="0 0 512 512" fill="none" xmlns="http://www.w3.org/2000/svg">
<g clip-path="url(#clip0_0_3)">
<path d="M496.46 217.18C491.46 209.33 486.69 201.92 484.76 194.7C482.71 187.03 483.1 177.96 483.51 168.36C484.1 154.44 484.72 140.05 477.73 127.97C470.63 115.7 457.73 108.97 445.29 102.56C436.86 98.18 428.89 94.05 423.42 88.56C417.95 83.07 413.82 75.12 409.42 66.69C403 54.25 396.3 41.37 384 34.27C371.93 27.27 357.53 27.9 343.61 28.49C334.01 28.9 324.94 29.29 317.27 27.24C310.05 25.31 302.64 20.56 294.79 15.54C282.88 7.9 270.54 0 256 0C241.46 0 229.12 7.9 217.18 15.54C209.33 20.54 201.92 25.31 194.7 27.24C187 29.29 178 28.9 168.36 28.49C154.44 27.9 140.05 27.28 127.97 34.27C115.7 41.37 108.97 54.27 102.56 66.71C98.18 75.14 94.05 83.11 88.56 88.58C83.07 94.05 75.12 98.18 66.69 102.58C54.25 109 41.37 115.7 34.27 128C27.27 140.07 27.9 154.47 28.49 168.39C28.9 177.99 29.29 187.06 27.24 194.73C25.31 201.95 20.56 209.36 15.54 217.21C7.9 229.12 0 241.46 0 256C0 270.54 7.9 282.88 15.54 294.82C20.54 302.67 25.31 310.08 27.24 317.3C29.29 325 28.9 334 28.49 343.64C27.9 357.56 27.28 372 34.27 384C41.37 396.27 54.27 403 66.71 409.41C75.14 413.79 83.11 417.92 88.58 423.41C94.05 428.9 98.18 436.85 102.58 445.28C109 457.75 115.7 470.63 128 477.73C140.07 484.73 154.47 484.1 168.39 483.51C177.99 483.1 187.06 482.71 194.73 484.76C201.95 486.69 209.36 491.44 217.21 496.46C229.12 504.1 241.46 512 256 512C270.54 512 282.88 504.1 294.82 496.46C302.67 491.46 310.08 486.69 317.3 484.76C324.97 482.71 334.04 483.1 343.64 483.51C357.56 484.1 371.95 484.72 384.03 477.73C396.3 470.63 403.03 457.73 409.44 445.29C413.82 436.86 417.95 428.89 423.44 423.42C428.93 417.95 436.88 413.82 445.31 409.42C457.75 403 470.63 396.3 477.73 384C484.73 371.93 484.1 357.53 483.51 343.61C483.1 334.01 482.71 324.94 484.76 317.27C486.69 310.05 491.44 302.64 496.46 294.79C504.1 282.88 512 270.54 512 256C512 241.46 504.1 229.12 496.46 217.18ZM483.82 286.74C478.4 295.2 472.82 303.96 470.27 313.43C467.63 323.32 468.08 333.98 468.52 344.28C469.05 356.6 469.52 368.28 464.75 376.52C459.84 385 449.42 390.41 438.39 396.13C429.31 400.84 419.93 405.71 412.82 412.82C405.71 419.93 400.82 429.31 396.13 438.39C390.41 449.39 385 459.84 376.52 464.75C368.23 469.55 356.6 469.05 344.28 468.52C333.98 468.08 323.28 467.63 313.43 470.27C303.96 472.8 295.2 478.4 286.74 483.82C276.15 490.6 266.15 497 256 497C245.85 497 235.85 490.6 225.26 483.82C216.8 478.4 208.04 472.82 198.57 470.27C192.355 468.751 185.967 468.051 179.57 468.19C175.57 468.19 171.63 468.35 167.71 468.52C155.39 469.05 143.76 469.52 135.47 464.75C126.99 459.84 121.58 449.42 115.86 438.39C111.15 429.31 106.28 419.93 99.17 412.82C92.06 405.71 82.68 400.82 73.6 396.13C62.6 390.41 52.15 385 47.24 376.52C42.45 368.23 42.94 356.6 43.47 344.28C43.91 333.97 44.36 323.28 41.72 313.43C39.2 304 33.6 295.2 28.18 286.74C21.4 276.15 15 266.15 15 256C15 245.85 21.4 235.85 28.18 225.26C33.6 216.8 39.18 208.04 41.73 198.57C44.37 188.68 43.92 178.02 43.48 167.72C42.95 155.4 42.48 143.77 47.25 135.48C52.16 127 62.58 121.59 73.61 115.87C82.69 111.16 92.07 106.29 99.18 99.18C106.29 92.07 111.18 82.69 115.87 73.61C121.59 62.61 127 52.16 135.48 47.25C143.77 42.46 155.4 42.95 167.72 43.48C178.02 43.92 188.72 44.37 198.57 41.73C208 39.2 216.8 33.6 225.26 28.18C235.85 21.4 245.85 15 256 15C266.15 15 276.15 21.4 286.74 28.18C295.2 33.6 303.96 39.18 313.43 41.73C323.32 44.37 333.98 43.92 344.28 43.48C356.6 42.95 368.28 42.48 376.52 47.25C385 52.16 390.41 62.58 396.13 73.61C400.84 82.69 405.71 92.07 412.82 99.18C419.93 106.29 429.31 111.18 438.39 115.87C449.39 121.59 459.84 127 464.75 135.48C469.54 143.77 469.05 155.4 468.52 167.72C468.08 178.03 467.63 188.72 470.27 198.57C472.8 208.04 478.4 216.8 483.82 225.26C490.6 235.85 497 245.85 497 256C497 266.15 490.6 276.15 483.82 286.74Z" fill="white"/>
<path d="M256 68.5C152.61 68.5 68.5 152.61 68.5 256C68.5 359.39 152.61 443.5 256 443.5C359.39 443.5 443.5 359.39 443.5 256C443.5 152.61 359.39 68.5 256 68.5ZM256 428.5C160.88 428.5 83.5 351.12 83.5 256C83.5 160.88 160.88 83.5 256 83.5C351.12 83.5 428.5 160.88 428.5 256C428.5 351.12 351.12 428.5 256 428.5Z" fill="white"/>
<path d="M360.89 185.31C359.805 184.376 358.475 183.771 357.058 183.567C355.64 183.363 354.194 183.569 352.89 184.16L296.28 209.54L262.42 152.19C261.757 151.066 260.813 150.135 259.68 149.488C258.547 148.841 257.265 148.5 255.96 148.5C254.655 148.5 253.373 148.841 252.24 149.488C251.107 150.135 250.163 151.066 249.5 152.19L215.64 209.54L159.03 184.16C157.73 183.576 156.292 183.374 154.881 183.578C153.471 183.783 152.149 184.384 151.068 185.312C149.988 186.241 149.194 187.458 148.78 188.821C148.366 190.184 148.348 191.637 148.73 193.01L173.73 283.01C174.174 284.594 175.126 285.99 176.439 286.981C177.752 287.973 179.354 288.506 181 288.5H331C332.639 288.498 334.232 287.96 335.537 286.969C336.842 285.978 337.788 284.588 338.23 283.01L363.23 193.01C363.607 191.637 363.587 190.184 363.173 188.822C362.759 187.459 361.967 186.241 360.89 185.31ZM325.3 273.5H186.7L167.5 204.37L215.66 226C217.34 226.758 219.24 226.871 220.997 226.318C222.755 225.765 224.247 224.583 225.19 223L256 170.75L286.81 222.94C287.753 224.523 289.245 225.705 291.003 226.258C292.76 226.811 294.66 226.698 296.34 225.94L344.5 204.34L325.3 273.5ZM331 311H181C179.011 311 177.103 311.79 175.697 313.197C174.29 314.603 173.5 316.511 173.5 318.5V343.5C173.5 348.804 175.607 353.891 179.358 357.642C183.109 361.393 188.196 363.5 193.5 363.5H318.5C323.804 363.5 328.891 361.393 332.642 357.642C336.393 353.891 338.5 348.804 338.5 343.5V318.5C338.5 316.511 337.71 314.603 336.303 313.197C334.897 311.79 332.989 311 331 311ZM323.5 343.5C323.5 344.826 322.973 346.098 322.036 347.036C321.098 347.973 319.826 348.5 318.5 348.5H193.5C192.174 348.5 190.902 347.973 189.964 347.036C189.027 346.098 188.5 344.826 188.5 343.5V326H323.5V343.5Z" fill="white"/>
</g>
<defs>
<clipPath id="clip0_0_3">
<rect width="512" height="512" fill="white"/>
</clipPath>
</defs>
</svg>
