<svg width="512" height="512" viewBox="0 0 512 512" fill="none" xmlns="http://www.w3.org/2000/svg">
<path d="M380.176 342.072L283.192 151.344C282.521 150.028 281.5 148.923 280.241 148.151C278.981 147.378 277.533 146.969 276.056 146.968H235.944C232.936 146.968 230.176 148.656 228.808 151.344L131.824 342.072C131.135 343.429 130.847 344.954 130.994 346.469C131.142 347.984 131.718 349.425 132.656 350.624L181.072 412.552H169.328C167.206 412.552 165.171 413.395 163.671 414.895C162.171 416.395 161.328 418.43 161.328 420.552V483.528C161.328 485.65 162.171 487.685 163.671 489.185C165.171 490.685 167.206 491.528 169.328 491.528H342.664C344.786 491.528 346.821 490.685 348.321 489.185C349.821 487.685 350.664 485.65 350.664 483.528V420.552C350.664 418.43 349.821 416.395 348.321 414.895C346.821 413.395 344.786 412.552 342.664 412.552H330.92L379.336 350.624C380.274 349.425 380.85 347.984 380.998 346.469C381.145 344.954 380.865 343.429 380.176 342.072ZM255.984 276.392H256.016C264.504 276.392 271.416 283.312 271.416 291.8C271.416 300.288 264.504 307.208 256.008 307.208C247.512 307.208 240.6 300.296 240.6 291.8C240.6 283.304 247.504 276.4 256 276.392H255.984ZM334.664 475.528H177.328V428.552H334.664V475.528ZM310.624 412.552H201.384L148.4 344.784L240.848 162.968H248.008V261.56C234.576 265.12 224.6 277.272 224.6 291.808C224.6 309.128 238.688 323.216 256.008 323.216C273.328 323.216 287.416 309.128 287.416 291.808C287.416 277.272 277.44 265.12 264.008 261.56V162.968H271.168L363.616 344.784L310.624 412.552Z" fill="white"/>
<path d="M291.12 21.616H220.88C218.758 21.616 216.723 22.4589 215.223 23.9591C213.723 25.4594 212.88 27.4943 212.88 29.616V56.736H130.552C126.784 36.56 109.072 21.224 87.816 21.224C63.824 21.224 44.304 40.744 44.304 64.736C44.304 88.728 63.824 108.24 87.816 108.24C97.9591 108.225 107.779 104.669 115.581 98.1877C123.383 91.7061 128.678 82.7044 130.552 72.736H182.528C158.558 83.7509 137.371 100.015 120.535 120.324C103.699 140.633 91.6445 164.467 85.264 190.064C62.696 191.416 44.696 210.024 44.696 232.92C44.696 256.696 64.04 276.04 87.816 276.04C111.592 276.04 130.936 256.696 130.936 232.92C130.936 213.856 118.416 197.832 101.224 192.152C108.302 165.13 122.334 140.434 141.924 120.521C161.514 100.609 185.978 86.1747 212.88 78.656V99.856C212.88 101.978 213.723 104.013 215.223 105.513C216.723 107.013 218.758 107.856 220.88 107.856H291.12C293.242 107.856 295.277 107.013 296.777 105.513C298.277 104.013 299.12 101.978 299.12 99.856V78.656C326.022 86.1754 350.485 100.61 370.075 120.522C389.665 140.435 403.697 165.131 410.776 192.152C393.592 197.832 381.064 213.856 381.064 232.92C381.064 256.696 400.408 276.04 424.184 276.04C447.96 276.04 467.304 256.696 467.304 232.92C467.304 210.024 449.304 191.408 426.736 190.064C420.354 164.468 408.3 140.634 391.464 120.325C374.628 100.016 353.442 83.7519 329.472 72.736H381.448C383.322 82.7044 388.617 91.7061 396.419 98.1877C404.221 104.669 414.041 108.225 424.184 108.24C448.176 108.24 467.696 88.728 467.696 64.736C467.696 40.744 448.176 21.224 424.184 21.224C402.928 21.224 385.216 36.56 381.448 56.736H299.12V29.616C299.12 27.4943 298.277 25.4594 296.777 23.9591C295.277 22.4589 293.242 21.616 291.12 21.616ZM114.936 232.92C114.936 247.872 102.768 260.04 87.816 260.04C72.864 260.04 60.696 247.872 60.696 232.92C60.696 217.968 72.864 205.8 87.816 205.8C102.768 205.8 114.936 217.968 114.936 232.92ZM451.304 232.92C451.304 247.872 439.136 260.04 424.184 260.04C409.232 260.04 397.064 247.872 397.064 232.92C397.064 217.968 409.232 205.8 424.184 205.8C439.136 205.8 451.304 217.968 451.304 232.92ZM87.816 92.24C72.648 92.24 60.304 79.904 60.304 64.736C60.304 49.568 72.64 37.224 87.816 37.224C102.992 37.224 115.304 49.552 115.32 64.712V64.76C115.305 72.0478 112.402 79.0324 107.246 84.1834C102.091 89.3344 95.1038 92.2315 87.816 92.24ZM283.12 91.856H228.88V37.616H283.12V91.856ZM424.184 37.224C439.352 37.224 451.696 49.56 451.696 64.736C451.696 79.912 439.36 92.24 424.184 92.24C409.008 92.24 396.696 79.912 396.68 64.76V64.712C396.693 57.4229 399.595 50.4361 404.751 45.2834C409.906 40.1307 416.895 37.2325 424.184 37.224Z" fill="white"/>
</svg>
