<svg xmlns="http://www.w3.org/2000/svg" id="Layer_1" viewBox="0 0 1629.62 349.5">
  <defs fill="#ffffff">
    <style>
      .cls-1 {
        fill: #ffffff;
      }

      .cls-2 {
        fill: #ffffff;
      }
    </style>
  </defs>
  <g>
    <path class="cls-2" d="M319.89,163.48c-1.73,86.67-72.54,156.41-159.61,156.55,4.27-10.4,6.67-22,6.67-34,0-49.74-40.4-90.14-90.14-90.14-25.07,0-47.74,10.27-64.14,26.8C4.53,203.35,0,182.28,0,160.01,0,71.61,71.61,0,160.01,0c28.27,0,54.67,7.2,77.74,20.14-11.33,15.07-18,33.6-18,53.87,0,49.74,40.4,90.14,90.14,90.14,3.33,0,6.67-.13,10-.67Z" fill="#ffffff"/>
    <path class="cls-1" d="M373.37,74.01c0,32.27-24,58.8-55.07,62.94-2.8.4-5.6.53-8.4.53-35.07,0-63.47-28.4-63.47-63.47,0-14.67,4.93-28.27,13.47-39.07,11.6-14.8,29.6-24.4,50-24.4,35.07,0,63.47,28.4,63.47,63.47Z" fill="#ffffff"/>
    <path class="cls-1" d="M140.28,286.03c0,11.47-3.07,22.27-8.4,31.47-10.93,19.2-31.47,32-55.07,32-35.07,0-63.47-28.4-63.47-63.47,0-14.27,4.8-27.6,12.8-38.27,11.6-15.33,30-25.2,50.67-25.2,35.07,0,63.47,28.4,63.47,63.47Z" fill="#ffffff"/>
  </g>
  <g>
    <g>
      <path class="cls-1" d="M587.72,62.53c5.22,7.25,7.83,15.94,7.83,26.05s-2.64,18.78-7.9,25.11c-2.94,3.55-7.28,6.79-13.01,9.72,8.71,3.16,15.28,8.17,19.7,15.04,4.43,6.87,6.65,15.2,6.65,25s-2.53,19.17-7.6,27.19c-3.22,5.33-7.25,9.79-12.08,13.42-5.45,4.17-11.87,7.03-19.27,8.57s-15.44,2.31-24.11,2.31h-76.86V44.36h82.44c20.8.32,35.54,6.37,44.21,18.17ZM495.1,73.99v37.61h41.46c7.41,0,13.42-1.4,18.04-4.22,4.62-2.81,6.93-7.81,6.93-14.98,0-7.95-3.05-13.19-9.16-15.74-5.27-1.78-11.99-2.66-20.16-2.66h-37.1ZM495.1,139.85v45.48h41.41c7.39,0,13.16-1,17.28-3.01,7.47-3.71,11.21-10.8,11.21-21.3,0-8.88-3.62-14.96-10.86-18.28-4.05-1.85-9.72-2.81-17.05-2.89h-41.98Z" fill="#ffffff"/>
      <path class="cls-1" d="M689.6,85.85c.42.04,1.37.1,2.83.18v33.79c-2.08-.23-3.93-.39-5.55-.46-1.62-.07-2.93-.11-3.93-.11-13.27,0-22.18,4.33-26.73,12.97-2.55,4.86-3.82,12.34-3.82,22.45v60.29h-33.22v-126.15h31.48v21.99c5.1-8.41,9.53-14.16,13.32-17.24,6.17-5.17,14.19-7.75,24.07-7.75.62,0,1.14.02,1.57.05Z" fill="#ffffff"/>
      <path class="cls-1" d="M752.24,138.23c6.14-.77,10.53-1.73,13.18-2.9,4.74-2,7.11-5.13,7.11-9.37,0-5.16-1.81-8.73-5.45-10.7-3.64-1.97-8.98-2.95-16.02-2.95-7.9,0-13.49,1.93-16.78,5.78-2.35,2.86-3.91,6.71-4.69,11.57h-31.83c.69-11.03,3.79-20.1,9.3-27.19,8.76-11.11,23.79-16.66,45.1-16.66,13.87,0,26.19,2.73,36.96,8.21,10.77,5.48,16.16,15.82,16.16,31.02v57.87c0,4.01.08,8.88.23,14.58.24,4.33.88,7.25,1.97,8.8,1.08,1.55,2.7,2.82,4.86,3.82v4.86h-35.88c-1.01-2.55-1.7-4.93-2.09-7.18-.39-2.23-.69-4.78-.93-7.64-4.57,4.94-9.86,9.15-15.83,12.62-7.14,4.09-15.21,6.13-24.22,6.13-11.49,0-20.97-3.26-28.46-9.78-7.49-6.52-11.24-15.76-11.24-27.72,0-15.51,6.03-26.73,18.07-33.68,6.61-3.78,16.32-6.48,29.15-8.1l11.31-1.38ZM772.41,153.62c-2.11,1.31-4.24,2.37-6.4,3.18-2.15.81-5.1,1.56-8.86,2.26l-7.51,1.38c-7.04,1.24-12.09,2.74-15.16,4.51-5.2,3.01-7.8,7.68-7.8,14.01,0,5.63,1.59,9.7,4.77,12.2,3.17,2.51,7.03,3.77,11.57,3.77,7.2,0,13.84-2.09,19.91-6.26,6.07-4.16,9.23-11.77,9.46-22.8v-12.27Z" fill="#ffffff"/>
      <path class="cls-1" d="M926.34,96.04c8.26,6.82,12.39,18.15,12.39,33.97v84.95h-33.79v-76.73c0-6.64-.88-11.73-2.65-15.28-3.22-6.48-9.35-9.72-18.38-9.72-11.11,0-18.73,4.75-22.87,14.24-2.14,5.02-3.22,11.42-3.22,19.21v68.28h-32.99v-125.92h31.94v18.41c4.23-6.48,8.23-11.15,11.99-14.01,6.76-5.09,15.33-7.63,25.71-7.63,12.98,0,23.6,3.41,31.86,10.24Z" fill="#ffffff"/>
      <path class="cls-1" d="M1026.82,90.83c5.94,3.36,10.77,8.01,14.47,13.95v-60.18h33.44v170.36h-32.06v-17.48c-4.7,7.49-10.07,12.92-16.09,16.32-6.02,3.39-13.5,5.09-22.45,5.09-14.74,0-27.14-5.96-37.21-17.88-10.07-11.92-15.1-27.21-15.1-45.89,0-21.53,4.96-38.46,14.88-50.81,9.91-12.34,23.16-18.51,39.75-18.51,7.64,0,14.43,1.67,20.37,5.03ZM1034.92,180.7c4.86-6.95,7.29-15.94,7.29-26.97,0-15.43-3.89-26.47-11.69-33.1-4.78-4.01-10.34-6.02-16.66-6.02-9.65,0-16.72,3.64-21.24,10.93s-6.77,16.34-6.77,27.14c0,11.65,2.3,20.97,6.89,27.95,4.59,6.98,11.56,10.48,20.89,10.48s16.44-3.48,21.3-10.42Z" fill="#ffffff"/>
      <path class="cls-1" d="M1082.26,113.46v-23.5h17.59v-35.18h32.64v35.18h20.48v23.5h-20.48v66.66c0,5.17.65,8.38,1.96,9.66,1.31,1.27,5.33,1.91,12.04,1.91,1,0,2.07-.02,3.18-.06,1.12-.04,2.22-.1,3.3-.18v24.65l-15.63.58c-15.59.54-26.23-2.16-31.94-8.1-3.7-3.78-5.55-9.6-5.55-17.47v-77.66h-17.59Z" fill="#ffffff"/>
      <path class="cls-1" d="M1214.64,138.23c6.14-.77,10.53-1.73,13.18-2.9,4.74-2,7.11-5.13,7.11-9.37,0-5.16-1.81-8.73-5.45-10.7-3.64-1.97-8.98-2.95-16.02-2.95-7.9,0-13.49,1.93-16.78,5.78-2.35,2.86-3.91,6.71-4.69,11.57h-31.83c.69-11.03,3.79-20.1,9.3-27.19,8.76-11.11,23.79-16.66,45.1-16.66,13.87,0,26.19,2.73,36.96,8.21,10.77,5.48,16.16,15.82,16.16,31.02v57.87c0,4.01.08,8.88.23,14.58.24,4.33.88,7.25,1.97,8.8,1.08,1.55,2.7,2.82,4.86,3.82v4.86h-35.88c-1.01-2.55-1.7-4.93-2.09-7.18-.39-2.23-.69-4.78-.93-7.64-4.57,4.94-9.86,9.15-15.83,12.62-7.14,4.09-15.21,6.13-24.22,6.13-11.49,0-20.97-3.26-28.46-9.78-7.49-6.52-11.24-15.76-11.24-27.72,0-15.51,6.03-26.73,18.07-33.68,6.61-3.78,16.32-6.48,29.15-8.1l11.31-1.38ZM1234.81,153.62c-2.11,1.31-4.24,2.37-6.4,3.18-2.15.81-5.1,1.56-8.86,2.26l-7.51,1.38c-7.04,1.24-12.09,2.74-15.16,4.51-5.2,3.01-7.8,7.68-7.8,14.01,0,5.63,1.59,9.7,4.77,12.2,3.17,2.51,7.03,3.77,11.57,3.77,7.2,0,13.84-2.09,19.91-6.26,6.07-4.16,9.23-11.77,9.46-22.8v-12.27Z" fill="#ffffff"/>
      <path class="cls-1" d="M1320.69,214.96h-32.99V44.36h32.99v170.6Z" fill="#ffffff"/>
      <path class="cls-1" d="M1377.3,73.76h-33.44v-30.44h33.44v30.44ZM1343.86,88.81h33.44v126.15h-33.44v-126.15Z" fill="#ffffff"/>
      <path class="cls-1" d="M1475.22,134.06c-.62-4.7-2.21-8.95-4.76-12.73-3.71-5.09-9.48-7.64-17.29-7.64-11.14,0-18.76,5.52-22.86,16.55-2.16,5.85-3.24,13.62-3.24,23.32s1.08,16.66,3.24,22.28c3.94,10.5,11.37,15.74,22.28,15.74,7.74,0,13.22-2.09,16.47-6.26,3.25-4.16,5.22-9.57,5.91-16.2h33.69c-.78,10.03-4.41,19.52-10.89,28.46-10.36,14.43-25.69,21.65-46,21.65s-35.25-6.02-44.83-18.06c-9.58-12.04-14.37-27.64-14.37-46.82,0-21.64,5.29-38.48,15.87-50.52,10.58-12.04,25.18-18.05,43.8-18.05,15.83,0,28.79,3.55,38.86,10.64,10.08,7.1,16.04,19.63,17.9,37.61h-33.79Z" fill="#ffffff"/>
      <path class="cls-1" d="M1547.67,174.68c.7,5.86,2.22,10.03,4.54,12.5,4.11,4.4,11.7,6.6,22.8,6.6,6.51,0,11.69-.96,15.52-2.9,3.84-1.93,5.76-4.82,5.76-8.67s-1.55-6.53-4.64-8.45c-3.09-1.93-14.6-5.25-34.5-9.95-14.33-3.55-24.43-7.98-30.3-13.31-5.87-5.25-8.8-12.81-8.8-22.68,0-11.65,4.57-21.67,13.74-30.03,9.16-8.38,22.06-12.56,38.68-12.56s28.63,3.15,38.57,9.44c9.94,6.29,15.64,17.15,17.11,32.58h-32.99c-.46-4.24-1.66-7.6-3.6-10.08-3.64-4.47-9.82-6.71-18.56-6.71-7.2,0-12.32,1.12-15.38,3.36-3.06,2.24-4.59,4.86-4.59,7.88,0,3.78,1.63,6.52,4.88,8.22,3.25,1.77,14.73,4.82,34.44,9.14,13.14,3.09,22.99,7.75,29.54,14.01,6.48,6.33,9.72,14.23,9.72,23.73,0,12.49-4.66,22.7-13.97,30.61-9.31,7.9-23.72,11.86-43.19,11.86s-34.55-4.19-44.02-12.56c-9.47-8.37-14.2-19.04-14.2-32h33.44Z" fill="#ffffff"/>
    </g>
    <g>
      <path class="cls-1" d="M461.07,253.19h6.97v45.35h26.07v6.13h-33.05v-51.48Z" fill="#ffffff"/>
      <path class="cls-1" d="M520.31,253.19h37.53v6.31h-30.73v15.63h28.42v5.96h-28.42v17.45h31.26v6.13h-38.06v-51.48Z" fill="#ffffff"/>
      <path class="cls-1" d="M623.64,253.19v6.13h-17.35v45.35h-7.08v-45.35h-17.35v-6.13h41.77Z" fill="#ffffff"/>
      <path class="cls-1" d="M653.23,288.06c.17,2.92.85,5.29,2.07,7.11,2.31,3.41,6.39,5.12,12.23,5.12,2.62,0,5-.38,7.15-1.12,4.16-1.45,6.24-4.04,6.24-7.78,0-2.8-.88-4.8-2.63-5.99-1.78-1.17-4.56-2.18-8.34-3.05l-6.97-1.58c-4.56-1.03-7.78-2.16-9.67-3.4-3.27-2.15-4.91-5.36-4.91-9.64,0-4.63,1.6-8.42,4.8-11.39,3.2-2.97,7.74-4.45,13.6-4.45,5.4,0,9.98,1.31,13.75,3.91s5.66,6.77,5.66,12.49h-6.55c-.35-2.76-1.1-4.87-2.24-6.34-2.13-2.69-5.74-4.03-10.83-4.03-4.11,0-7.07.87-8.87,2.59-1.8,1.73-2.7,3.74-2.7,6.03,0,2.52,1.05,4.37,3.15,5.54,1.38.74,4.49,1.68,9.36,2.8l7.22,1.65c3.48.8,6.17,1.88,8.06,3.26,3.27,2.41,4.91,5.9,4.91,10.48,0,5.7-2.08,9.78-6.22,12.23-4.14,2.45-8.96,3.68-14.46,3.68-6.4,0-11.42-1.64-15.03-4.91-3.62-3.25-5.4-7.65-5.33-13.21h6.55Z" fill="#ffffff"/>
      <path class="cls-1" d="M788.61,254.66c5.12,2.69,8.24,7.39,9.39,14.12h-6.9c-.84-3.76-2.58-6.5-5.22-8.22-2.64-1.72-5.97-2.58-9.99-2.58-4.77,0-8.78,1.79-12.04,5.36-3.26,3.57-4.89,8.9-4.89,15.98,0,6.12,1.34,11.1,4.03,14.95,2.69,3.85,7.07,5.76,13.14,5.76,4.65,0,8.5-1.35,11.55-4.05,3.05-2.7,4.61-7.06,4.68-13.09h-16.12v-5.78h22.6v27.54h-4.49l-1.68-6.62c-2.36,2.59-4.45,4.39-6.27,5.4-3.06,1.73-6.95,2.59-11.67,2.59-6.1,0-11.35-1.97-15.73-5.92-4.79-4.95-7.18-11.75-7.18-20.4s2.34-15.48,7.01-20.57c4.44-4.86,10.19-7.29,17.24-7.29,4.84,0,9.02.94,12.55,2.8Z" fill="#ffffff"/>
      <path class="cls-1" d="M829.14,253.19h23.83c3.92,0,7.16.57,9.71,1.72,4.84,2.2,7.25,6.25,7.25,12.16,0,3.08-.64,5.61-1.91,7.57-1.27,1.96-3.06,3.54-5.34,4.73,2.01.81,3.52,1.89,4.54,3.22,1.02,1.33,1.59,3.5,1.7,6.48l.25,6.9c.07,1.96.24,3.43.49,4.38.42,1.64,1.17,2.69,2.24,3.15v1.16h-8.55c-.24-.45-.42-1.02-.56-1.72s-.25-2.06-.35-4.07l-.42-8.59c-.17-3.36-1.41-5.62-3.75-6.76-1.33-.63-3.43-.95-6.27-.95h-15.88v22.08h-6.97v-51.48ZM852.23,276.78c3.27,0,5.86-.66,7.76-1.96s2.86-3.67,2.86-7.08c0-3.67-1.33-6.17-4-7.5-1.43-.7-3.33-1.05-5.71-1.05h-17.03v17.59h16.12Z" fill="#ffffff"/>
      <path class="cls-1" d="M941.19,260.55c3.41,4.56,5.12,10.38,5.12,17.49,0,7.68-1.95,14.08-5.85,19.17-4.58,5.98-11.11,8.97-19.59,8.97-7.92,0-14.15-2.62-18.68-7.85-4.04-5.05-6.06-11.42-6.06-19.13,0-6.97,1.73-12.92,5.19-17.87,4.44-6.35,11-9.53,19.69-9.53s15.81,2.92,20.19,8.76ZM935.04,293.33c2.74-4.41,4.12-9.47,4.12-15.19,0-6.05-1.59-10.93-4.75-14.61s-7.49-5.54-12.98-5.54-9.67,1.83-13.04,5.48c-3.36,3.65-5.05,9.05-5.05,16.17,0,5.7,1.45,10.5,4.33,14.42,2.88,3.92,7.56,5.87,14.04,5.87,6.14,0,10.59-2.2,13.33-6.61Z" fill="#ffffff"/>
      <path class="cls-1" d="M976.67,253.19l9.71,41.88,11.63-41.88h7.57l11.63,41.88,9.71-41.88h7.64l-13.53,51.48h-7.32l-11.88-42.68-11.95,42.68h-7.32l-13.46-51.48h7.57Z" fill="#ffffff"/>
      <path class="cls-1" d="M1134.47,253.19v6.13h-17.35v45.35h-7.08v-45.35h-17.35v-6.13h41.77Z" fill="#ffffff"/>
      <path class="cls-1" d="M1200.65,260.55c3.41,4.56,5.12,10.38,5.12,17.49,0,7.68-1.95,14.08-5.85,19.17-4.58,5.98-11.11,8.97-19.59,8.97-7.92,0-14.15-2.62-18.68-7.85-4.04-5.05-6.06-11.42-6.06-19.13,0-6.97,1.73-12.92,5.19-17.87,4.44-6.35,11-9.53,19.69-9.53s15.81,2.92,20.19,8.76ZM1194.5,293.33c2.74-4.41,4.12-9.47,4.12-15.19,0-6.05-1.59-10.93-4.75-14.61s-7.49-5.54-12.98-5.54-9.67,1.83-13.04,5.48c-3.36,3.65-5.05,9.05-5.05,16.17,0,5.7,1.45,10.5,4.33,14.42,2.88,3.92,7.56,5.87,14.04,5.87,6.14,0,10.59-2.2,13.33-6.61Z" fill="#ffffff"/>
      <path class="cls-1" d="M1267.54,254.66c5.12,2.69,8.24,7.39,9.39,14.12h-6.9c-.84-3.76-2.58-6.5-5.22-8.22-2.64-1.72-5.97-2.58-9.99-2.58-4.77,0-8.78,1.79-12.04,5.36-3.26,3.57-4.89,8.9-4.89,15.98,0,6.12,1.34,11.1,4.03,14.95,2.69,3.85,7.07,5.76,13.14,5.76,4.65,0,8.5-1.35,11.55-4.05,3.05-2.7,4.61-7.06,4.68-13.09h-16.12v-5.78h22.6v27.54h-4.49l-1.68-6.62c-2.36,2.59-4.45,4.39-6.27,5.4-3.06,1.73-6.95,2.59-11.67,2.59-6.1,0-11.35-1.97-15.73-5.92-4.79-4.95-7.18-11.75-7.18-20.4s2.34-15.48,7.01-20.57c4.44-4.86,10.19-7.29,17.24-7.29,4.84,0,9.02.94,12.55,2.8Z" fill="#ffffff"/>
      <path class="cls-1" d="M1307.89,253.19h37.53v6.31h-30.73v15.63h28.42v5.96h-28.42v17.45h31.26v6.13h-38.06v-51.48Z" fill="#ffffff"/>
      <path class="cls-1" d="M1411.22,253.19v6.13h-17.35v45.35h-7.08v-45.35h-17.35v-6.13h41.77Z" fill="#ffffff"/>
      <path class="cls-1" d="M1436.43,253.19h7.04v21.27h26.77v-21.27h7.04v51.48h-7.04v-24.08h-26.77v24.08h-7.04v-51.48Z" fill="#ffffff"/>
      <path class="cls-1" d="M1507.42,253.19h37.53v6.31h-30.73v15.63h28.42v5.96h-28.42v17.45h31.26v6.13h-38.06v-51.48Z" fill="#ffffff"/>
      <path class="cls-1" d="M1574.12,253.19h23.83c3.92,0,7.16.57,9.71,1.72,4.84,2.2,7.25,6.25,7.25,12.16,0,3.08-.64,5.61-1.91,7.57-1.27,1.96-3.06,3.54-5.34,4.73,2.01.81,3.52,1.89,4.54,3.22,1.02,1.33,1.59,3.5,1.7,6.48l.25,6.9c.07,1.96.24,3.43.49,4.38.42,1.64,1.17,2.69,2.24,3.15v1.16h-8.55c-.24-.45-.42-1.02-.56-1.72s-.25-2.06-.35-4.07l-.42-8.59c-.17-3.36-1.41-5.62-3.75-6.76-1.33-.63-3.43-.95-6.27-.95h-15.88v22.08h-6.97v-51.48ZM1597.22,276.78c3.27,0,5.86-.66,7.76-1.96,1.9-1.31,2.86-3.67,2.86-7.08,0-3.67-1.33-6.17-4-7.5-1.43-.7-3.33-1.05-5.71-1.05h-17.03v17.59h16.12Z" fill="#ffffff"/>
    </g>
  </g>
</svg>