<svg width="512" height="512" viewBox="0 0 512 512" fill="none" xmlns="http://www.w3.org/2000/svg">
<g clip-path="url(#clip0_3_69)">
<path d="M447.509 64.492C405.921 22.904 350.627 0 291.812 0C232.997 0 177.703 22.904 136.116 64.492C133.072 67.5361 130.117 70.667 127.253 73.881C126.593 74.6173 126.084 75.4768 125.757 76.4101C125.429 77.3433 125.289 78.3321 125.344 79.3196C125.4 80.3071 125.65 81.274 126.08 82.1648C126.51 83.0555 127.111 83.8527 127.85 84.5105C128.588 85.1683 129.449 85.6738 130.384 85.9981C131.318 86.3223 132.307 86.459 133.295 86.4001C134.282 86.3413 135.248 86.0881 136.137 85.6551C137.027 85.2221 137.822 84.6179 138.477 83.877C141.148 80.8791 143.905 77.9586 146.744 75.119C185.493 36.37 237.013 15.029 291.813 15.029C346.613 15.029 398.132 36.369 436.881 75.119C516.872 155.11 516.872 285.265 436.881 365.256C398.132 404.005 346.612 425.346 291.813 425.346C237.013 425.346 185.493 404.006 146.744 365.256C113.053 331.565 92.037 286.934 87.568 239.585C83.156 192.847 94.945 145.703 120.762 106.836C121.828 105.176 122.198 103.163 121.793 101.232C121.388 99.3006 120.239 97.6064 118.596 96.5147C116.952 95.423 114.945 95.0214 113.008 95.3966C111.071 95.7718 109.359 96.8936 108.242 98.52C80.527 140.244 67.87 190.844 72.605 240.998C76.267 279.798 90.29 316.889 112.803 348.359L90.735 370.427C89.3254 369.019 87.4145 368.229 85.4223 368.229C83.4302 368.23 81.5198 369.021 80.111 370.43L12.71 437.831C-4.23503 454.775 -4.23503 482.347 12.71 499.291C21.181 507.764 32.31 512 43.439 512C54.568 512 65.697 507.764 74.169 499.292L93.218 480.243C93.9158 479.545 94.4694 478.717 94.847 477.805C95.2247 476.893 95.4191 475.916 95.4191 474.929C95.4191 473.942 95.2247 472.965 94.847 472.053C94.4694 471.141 93.9158 470.313 93.218 469.615C92.5201 468.917 91.6917 468.364 90.7799 467.986C89.8681 467.608 88.8909 467.414 87.904 467.414C86.9171 467.414 85.9398 467.608 85.0281 467.986C84.1163 468.364 83.2878 468.917 82.59 469.615L63.541 488.664C58.171 494.034 51.032 496.991 43.438 496.991C35.844 496.991 28.705 494.034 23.335 488.664C17.965 483.294 15.008 476.155 15.008 468.561C15.008 460.967 17.965 453.828 23.335 448.458L85.422 386.371L125.627 426.576L103.844 448.359C103.146 449.057 102.593 449.885 102.215 450.797C101.837 451.709 101.643 452.686 101.643 453.673C101.643 454.66 101.837 455.637 102.215 456.549C102.593 457.461 103.146 458.289 103.844 458.987C104.542 459.685 105.37 460.238 106.282 460.616C107.194 460.994 108.171 461.188 109.158 461.188C110.145 461.188 111.122 460.994 112.034 460.616C112.946 460.238 113.774 459.685 114.472 458.987L141.568 431.891C142.977 430.482 143.769 428.572 143.769 426.58C143.77 424.587 142.979 422.676 141.571 421.267L163.596 399.242C200.734 425.955 245.16 440.377 291.81 440.377C350.625 440.377 405.918 417.473 447.507 375.885C489.096 334.297 512 279.002 512 220.188C512 161.374 489.096 106.08 447.509 64.492ZM130.945 410.638L101.361 381.054L122.039 360.376C126.481 365.766 131.179 370.942 136.115 375.884C141.055 380.821 146.224 385.525 151.603 389.98L130.945 410.638Z" fill="white"/>
<path d="M368.689 380.394C386.743 371.73 403.142 360.093 417.43 345.806C486.695 276.54 486.695 163.837 417.43 94.571C348.163 25.305 235.461 25.306 166.195 94.571C96.9301 163.837 96.9301 276.54 166.195 345.806C199.922 379.533 245.457 397.817 292.022 397.816C307.994 397.818 323.893 395.662 339.288 391.408C341.202 390.871 342.825 389.597 343.802 387.866C344.779 386.135 345.03 384.087 344.501 382.171C343.971 380.255 342.704 378.627 340.977 377.643C339.25 376.659 337.203 376.399 335.285 376.921C278.873 392.508 218.157 376.513 176.823 335.178C113.417 271.772 113.417 168.604 176.823 105.199C240.228 41.795 343.394 41.793 406.802 105.199C470.208 168.605 470.208 271.773 406.803 335.178C393.717 348.262 378.707 358.916 362.187 366.844C360.41 367.718 359.051 369.259 358.403 371.13C357.756 373.001 357.874 375.053 358.73 376.838C359.587 378.623 361.114 379.998 362.978 380.664C364.843 381.33 366.895 381.233 368.689 380.394Z" fill="white"/>
<path d="M300.865 185.944C302.858 185.944 304.77 185.152 306.179 183.743C307.588 182.334 308.38 180.422 308.38 178.429C308.38 176.436 307.588 174.524 306.179 173.115C304.77 171.706 302.858 170.914 300.865 170.914H265.674C263.681 170.914 261.77 171.706 260.36 173.115C258.951 174.524 258.159 176.436 258.159 178.429V261.947C258.159 263.94 258.951 265.852 260.36 267.261C261.77 268.67 263.681 269.462 265.674 269.462H300.865C302.858 269.462 304.77 268.67 306.179 267.261C307.588 265.852 308.38 263.94 308.38 261.947C308.38 259.954 307.588 258.042 306.179 256.633C304.77 255.224 302.858 254.432 300.865 254.432H273.189V227.703H298.27C300.263 227.703 302.175 226.911 303.584 225.502C304.993 224.093 305.785 222.181 305.785 220.188C305.785 218.195 304.993 216.283 303.584 214.874C302.175 213.465 300.263 212.673 298.27 212.673H273.189V185.944H300.865ZM211.785 254.817C202.569 254.817 193.671 251.069 187.981 244.791C187.318 244.06 186.518 243.466 185.626 243.044C184.734 242.622 183.767 242.38 182.781 242.332C181.796 242.283 180.81 242.43 179.881 242.762C178.952 243.095 178.097 243.607 177.366 244.27C176.635 244.933 176.041 245.733 175.619 246.625C175.197 247.517 174.955 248.484 174.907 249.47C174.858 250.455 175.005 251.441 175.337 252.37C175.67 253.299 176.182 254.154 176.845 254.885C185.336 264.254 198.398 269.847 211.786 269.847C227.82 269.847 241.79 259.331 244.28 245.385C247.152 229.297 234.502 218.522 221.706 213.802C210.859 209.801 200.798 205.433 198.259 204.317C195.566 202.344 194.259 199.191 194.748 195.781C195.365 191.489 198.663 188.043 203.571 186.565C217.104 182.492 229.323 192.297 229.555 192.486C231.088 193.727 233.047 194.315 235.01 194.125C236.973 193.934 238.783 192.979 240.048 191.466C241.314 189.954 241.934 188.004 241.775 186.038C241.616 184.072 240.691 182.248 239.199 180.958C238.455 180.332 220.716 165.706 199.237 172.174C188.739 175.336 181.318 183.563 179.871 193.646C178.524 203.033 182.589 212.061 190.48 217.206C190.812 217.422 191.161 217.612 191.523 217.774C192.007 217.99 203.525 223.117 216.505 227.905C225.824 231.342 230.554 236.751 229.484 242.745C228.437 248.597 221.879 254.817 211.785 254.817ZM415.096 220.188C415.096 192.806 392.819 170.529 365.436 170.529C338.054 170.529 315.778 192.806 315.778 220.188C315.778 247.57 338.054 269.846 365.436 269.846C392.819 269.847 415.096 247.57 415.096 220.188ZM330.809 220.188C330.809 201.094 346.343 185.559 365.437 185.559C384.532 185.559 400.067 201.093 400.067 220.188C400.067 239.283 384.532 254.817 365.437 254.817C346.343 254.817 330.809 239.283 330.809 220.188Z" fill="white"/>
</g>
<defs>
<clipPath id="clip0_3_69">
<rect width="512" height="512" fill="white"/>
</clipPath>
</defs>
</svg>
