<svg width="512" height="512" viewBox="0 0 512 512" fill="none" xmlns="http://www.w3.org/2000/svg">
<g clip-path="url(#clip0_3_43)">
<mask id="mask0_3_43" style="mask-type:luminance" maskUnits="userSpaceOnUse" x="0" y="0" width="512" height="512">
<path d="M0 0.00149536H511.999V512H0V0.00149536Z" fill="white"/>
</mask>
<g mask="url(#mask0_3_43)">
<path d="M10 155.327H465.518" stroke="white" stroke-width="14" stroke-miterlimit="10" stroke-linecap="round" stroke-linejoin="round"/>
<path d="M93.5067 112.773C106.603 112.773 117.289 102.121 117.289 89.0323C117.289 75.9433 106.603 65.2913 93.5067 65.2913C80.4398 65.2913 69.7528 75.9433 69.7528 89.0323C69.7528 102.121 80.4398 112.773 93.5067 112.773Z" stroke="white" stroke-width="14" stroke-miterlimit="10" stroke-linecap="round" stroke-linejoin="round"/>
<path d="M299.949 65.2913H389.409C402.476 65.2913 413.163 75.9723 413.163 89.0323C413.163 102.093 402.476 112.773 389.409 112.773H299.949C286.882 112.773 276.195 102.093 276.195 89.0323C276.195 75.9723 286.882 65.2913 299.949 65.2913Z" stroke="white" stroke-width="14" stroke-miterlimit="10" stroke-linecap="round" stroke-linejoin="round"/>
<path d="M181.209 112.773C194.304 112.773 204.99 102.121 204.99 89.0323C204.99 75.9433 194.304 65.2913 181.209 65.2913C168.142 65.2913 157.455 75.9433 157.455 89.0323C157.455 102.121 168.142 112.773 181.209 112.773Z" stroke="white" stroke-width="14" stroke-miterlimit="10" stroke-linecap="round" stroke-linejoin="round"/>
<path d="M162.416 232.245L142.403 315.992" stroke="white" stroke-width="14" stroke-miterlimit="10" stroke-linecap="round" stroke-linejoin="round"/>
<path d="M208.506 308.428L236.823 276.64C238.07 275.252 238.07 272.986 236.823 271.598L208.506 239.81" stroke="white" stroke-width="14" stroke-miterlimit="10" stroke-linecap="round" stroke-linejoin="round"/>
<path d="M96.3137 308.428L67.9968 276.64C66.7488 275.252 66.7488 272.986 67.9968 271.598L96.3137 239.81" stroke="white" stroke-width="14" stroke-miterlimit="10" stroke-linecap="round" stroke-linejoin="round"/>
<path d="M404.518 276.441C415.459 278.878 425.692 283.184 434.905 288.963L443.097 280.804C447.944 275.931 455.909 275.931 460.785 280.804L473.682 293.695C478.557 298.568 478.557 306.529 473.682 311.374L465.518 319.561C471.349 328.811 475.566 338.985 477.991 349.648H489.47C496.359 349.648 501.998 355.286 501.998 362.142V380.416C501.998 387.271 496.359 392.909 489.47 392.909H477.934C475.503 403.508 471.306 413.622 465.518 422.827L473.682 430.986C478.557 435.859 478.557 443.82 473.682 448.665L460.785 461.584C455.909 466.457 447.944 466.457 443.097 461.584L434.905 453.424C425.663 459.237 415.504 463.442 404.858 465.862V477.477C404.858 484.362 399.217 490 392.358 490H374.075C367.214 490 361.574 484.362 361.574 477.477V465.834C350.802 463.397 340.683 459.119 331.583 453.424L323.42 461.584C318.544 466.457 310.58 466.457 305.732 461.584L292.807 448.665C287.959 443.82 287.959 435.859 292.807 430.986L300.998 422.827C295.19 413.629 290.982 403.513 288.555 392.909H276.961C270.074 392.909 264.46 387.271 264.46 380.416V362.142C264.46 355.286 270.074 349.648 276.961 349.648H288.527C290.926 339.107 295.074 329.043 300.8 319.873L292.58 311.629C287.705 306.784 287.705 298.823 292.58 293.95L305.477 281.059C310.353 276.186 318.318 276.186 323.165 281.059L331.3 289.162C340.504 283.331 350.623 279.088 361.234 276.611V265.081C361.234 258.196 366.846 252.558 373.734 252.558H391.989C398.877 252.558 404.518 258.196 404.518 265.081V276.441Z" stroke="white" stroke-width="14" stroke-miterlimit="10" stroke-linecap="round" stroke-linejoin="round"/>
<path d="M383.229 319.76C411.688 319.76 434.762 342.822 434.762 371.293C434.762 399.738 411.688 422.799 383.229 422.799C354.742 422.799 331.667 399.738 331.667 371.293C331.667 342.822 354.742 319.76 383.229 319.76Z" stroke="white" stroke-width="14" stroke-miterlimit="10" stroke-linecap="round" stroke-linejoin="round"/>
<path d="M106.433 392.91H47.2459C26.7819 392.91 10 372.881 10 348.431V66.4813C10 42.0044 26.7519 22.0025 47.2459 22.0025H428.272C448.766 22.0025 465.518 42.0324 465.518 66.4813V285.537M276.961 392.91H195.807" stroke="white" stroke-width="14" stroke-miterlimit="10" stroke-linecap="round" stroke-linejoin="round"/>
<path d="M151.22 392.91H151.418" stroke="white" stroke-width="14" stroke-miterlimit="10" stroke-linecap="round" stroke-linejoin="round"/>
</g>
</g>
<defs>
<clipPath id="clip0_3_43">
<rect width="512" height="512" fill="white"/>
</clipPath>
</defs>
</svg>
